<svg width="100%" viewBox="0 0 680 420" role="img" xmlns="http://www.w3.org/2000/svg">
<title>Parent reading bedtime story to child in a warm, dimly lit bedroom</title>
<desc>A cozy bedroom scene with a parent sitting beside a child in bed, reading a storybook by the soft glow of a bedside lamp. Deep navy walls, warm amber light, and soft bedding create a peaceful, sleepy atmosphere.</desc>
<defs>
  <radialGradient id="lampGlow" cx="50%" cy="50%" r="50%">
    <stop offset="0%" stop-color="#F5C97A" stop-opacity="0.55"/>
    <stop offset="60%" stop-color="#E8A84A" stop-opacity="0.18"/>
    <stop offset="100%" stop-color="#C47A2A" stop-opacity="0"/>
  </radialGradient>
  <radialGradient id="roomAmbient" cx="72%" cy="28%" r="65%">
    <stop offset="0%" stop-color="#2E3A5C"/>
    <stop offset="100%" stop-color="#12192E"/>
  </radialGradient>
  <radialGradient id="moonGlow" cx="50%" cy="50%" r="50%">
    <stop offset="0%" stop-color="#C8D8F0" stop-opacity="0.18"/>
    <stop offset="100%" stop-color="#8AA8D0" stop-opacity="0"/>
  </radialGradient>
</defs>
<rect x="0" y="0" width="680" height="420" fill="url(#roomAmbient)"/>
<rect x="380" y="0" width="300" height="260" fill="url(#lampGlow)" opacity="0.9"/>
<rect x="0" y="310" width="680" height="110" fill="#1A1E2E"/>
<rect x="0" y="306" width="680" height="6" fill="#232A3E"/>
<rect x="60" y="38" width="110" height="140" rx="4" fill="#1B2540"/>
<rect x="64" y="42" width="102" height="132" rx="3" fill="#1C2E50"/>
<line x1="115" y1="42" x2="115" y2="174" stroke="#243050" stroke-width="2"/>
<line x1="64" y1="108" x2="166" y2="108" stroke="#243050" stroke-width="2"/>
<ellipse cx="115" cy="108" rx="58" ry="72" fill="url(#moonGlow)"/>
<circle cx="115" cy="75" r="18" fill="#C8D8F0" opacity="0.45"/>
<circle cx="122" cy="71" r="14" fill="#1C2E50" opacity="0.85"/>
<circle cx="82" cy="60" r="1.2" fill="#C8D8F0" opacity="0.6"/>
<circle cx="145" cy="52" r="1" fill="#C8D8F0" opacity="0.5"/>
<circle cx="98" cy="140" r="1" fill="#C8D8F0" opacity="0.4"/>
<circle cx="152" cy="130" r="1.2" fill="#C8D8F0" opacity="0.55"/>
<rect x="42" y="30" width="28" height="180" rx="4" fill="#2A3050" opacity="0.85"/>
<rect x="166" y="30" width="28" height="180" rx="4" fill="#2A3050" opacity="0.85"/>
<path d="M42 30 Q56 80 48 180" stroke="#222840" stroke-width="2" fill="none" opacity="0.5"/>
<path d="M194 30 Q180 80 188 180" stroke="#222840" stroke-width="2" fill="none" opacity="0.5"/>
<rect x="400" y="240" width="100" height="72" rx="6" fill="#2C2018"/>
<rect x="406" y="246" width="88" height="60" rx="4" fill="#352818"/>
<line x1="420" y1="272" x2="490" y2="272" stroke="#4A3820" stroke-width="1.5" opacity="0.7"/>
<circle cx="455" cy="272" r="3" fill="#5A4830" opacity="0.8"/>
<rect x="435" y="208" width="20" height="34" rx="3" fill="#9E7A3A"/>
<rect x="431" y="238" width="28" height="6" rx="3" fill="#7A5E2A"/>
<path d="M420 168 L450 210 L490 210 L510 168 Z" fill="#F0D080" opacity="0.92"/>
<path d="M420 168 L510 168" stroke="#D4A830" stroke-width="1.5" fill="none"/>
<path d="M450 210 L490 210" stroke="#C49020" stroke-width="1" fill="none"/>
<ellipse cx="465" cy="210" rx="80" ry="60" fill="url(#lampGlow)" opacity="0.8"/>
<ellipse cx="465" cy="230" rx="60" ry="30" fill="#F5C97A" opacity="0.12"/>
<rect x="412" y="228" width="36" height="14" rx="2" fill="#6B8FA0" opacity="0.9"/>
<rect x="412" y="228" width="4" height="14" rx="1" fill="#4A6A80"/>
<rect x="200" y="160" width="380" height="20" rx="6" fill="#2C2018"/>
<rect x="200" y="160" width="380" height="8" rx="4" fill="#3A2820"/>
<rect x="200" y="292" width="380" height="22" rx="4" fill="#2C2018"/>
<rect x="208" y="178" width="364" height="120" rx="8" fill="#E8E0D0"/>
<rect x="218" y="184" width="120" height="56" rx="10" fill="#F4EEE0"/>
<rect x="224" y="190" width="108" height="44" rx="8" fill="#F8F4EC"/>
<rect x="208" y="230" width="364" height="70" rx="8" fill="#BFD0C8"/>
<rect x="208" y="230" width="364" height="8" rx="4" fill="#A8C0B0"/>
<path d="M208 250 Q320 244 420 252 Q500 258 572 248" stroke="#A0B8A8" stroke-width="1.5" fill="none" opacity="0.7"/>
<circle cx="280" cy="260" r="2.5" fill="#A0B8A8" opacity="0.4"/>
<circle cx="340" cy="256" r="2.5" fill="#A0B8A8" opacity="0.4"/>
<circle cx="400" cy="262" r="2.5" fill="#A0B8A8" opacity="0.4"/>
<circle cx="460" cy="258" r="2.5" fill="#A0B8A8" opacity="0.4"/>
<circle cx="520" cy="264" r="2.5" fill="#A0B8A8" opacity="0.4"/>
<ellipse cx="278" cy="212" rx="28" ry="26" fill="#D4A882"/>
<ellipse cx="278" cy="194" rx="26" ry="14" fill="#4A3018"/>
<path d="M252 200 Q260 186 278 186 Q296 186 304 200" fill="#4A3018"/>
<path d="M266 212 Q272 208 278 212" stroke="#8B6040" stroke-width="1.8" fill="none" stroke-linecap="round"/>
<path d="M280 212 Q286 208 292 212" stroke="#8B6040" stroke-width="1.8" fill="none" stroke-linecap="round"/>
<path d="M272 220 Q278 224 284 220" stroke="#B08060" stroke-width="1.5" fill="none" stroke-linecap="round"/>
<ellipse cx="296" cy="248" rx="50" ry="16" fill="#BFD0C8" opacity="0.6"/>
<ellipse cx="490" cy="280" rx="48" ry="30" fill="#3A4858" opacity="0.85"/>
<rect x="444" y="252" width="96" height="60" rx="18" fill="#3A4858"/>
<ellipse cx="490" cy="252" rx="42" ry="22" fill="#4A5868"/>
<path d="M448 262 Q420 270 400 258" stroke="#3A4858" stroke-width="22" fill="none" stroke-linecap="round"/>
<path d="M450 270 Q424 276 402 262" stroke="#4A5868" stroke-width="14" fill="none" stroke-linecap="round"/>
<path d="M532 262 Q548 272 550 290" stroke="#3A4858" stroke-width="20" fill="none" stroke-linecap="round"/>
<ellipse cx="490" cy="222" rx="30" ry="30" fill="#C4906A"/>
<ellipse cx="490" cy="200" rx="30" ry="16" fill="#1A1008"/>
<path d="M460 210 Q468 192 490 190 Q512 192 520 210" fill="#1A1008"/>
<path d="M478 226 Q484 222 490 226" stroke="#A07040" stroke-width="1.8" fill="none" stroke-linecap="round"/>
<path d="M478 222 Q484 218 490 222" stroke="#8B6040" stroke-width="1.5" fill="none"/>
<path d="M492 222 Q498 218 504 222" stroke="#8B6040" stroke-width="1.5" fill="none"/>
<g transform="translate(390, 252) rotate(-12)">
  <rect x="0" y="0" width="52" height="38" rx="3" fill="#E8D0B0"/>
  <rect x="0" y="0" width="52" height="38" rx="3" fill="none" stroke="#C0A070" stroke-width="1"/>
  <rect x="0" y="0" width="5" height="38" rx="2" fill="#A08050"/>
  <path d="M5 2 Q28 6 52 2" stroke="#D0B880" stroke-width="0.8" fill="none" opacity="0.6"/>
  <path d="M5 8 Q28 12 52 8" stroke="#D0B880" stroke-width="0.8" fill="none" opacity="0.4"/>
  <rect x="5" y="0" width="47" height="38" rx="2" fill="#F5C97A" opacity="0.18"/>
</g>
<ellipse cx="380" cy="310" rx="160" ry="18" fill="#F5C97A" opacity="0.06"/>
<ellipse cx="340" cy="336" rx="180" ry="22" fill="#2E3A2E" opacity="0.45"/>
<ellipse cx="340" cy="336" rx="155" ry="16" fill="#364438" opacity="0.35"/>
<ellipse cx="465" cy="155" rx="90" ry="65" fill="#F5C97A" opacity="0.13"/>
</svg>
