<svg width="100%" viewBox="0 0 1200 630" role="img" xmlns="http://www.w3.org/2000/svg">
  <title>Two siblings sharing toys on the floor together</title>
  <desc>A warm, balanced illustration of two children sitting on a rug sharing toys in a cozy, tidy living room. A hopeful, peaceful scene.</desc>
  <defs>
    <linearGradient id="wallGrad" x1="0" y1="0" x2="0" y2="1">
      <stop offset="0%" stop-color="#FDF6EE"/>
      <stop offset="100%" stop-color="#F5EBD8"/>
    </linearGradient>
    <linearGradient id="floorGrad" x1="0" y1="0" x2="0" y2="1">
      <stop offset="0%" stop-color="#E8D5B0"/>
      <stop offset="100%" stop-color="#D4BC8A"/>
    </linearGradient>
    <linearGradient id="windowLight" x1="0" y1="0" x2="0" y2="1">
      <stop offset="0%" stop-color="#FFF8E8" stop-opacity="0.9"/>
      <stop offset="100%" stop-color="#FFE8B0" stop-opacity="0.3"/>
    </linearGradient>
    <radialGradient id="sunbeam" cx="50%" cy="0%" r="80%">
      <stop offset="0%" stop-color="#FFF3CC" stop-opacity="0.4"/>
      <stop offset="100%" stop-color="#FFF3CC" stop-opacity="0"/>
    </radialGradient>
  </defs>
  <rect x="0" y="0" width="1200" height="630" fill="url(#wallGrad)"/>
  <ellipse cx="600" cy="0" rx="500" ry="350" fill="url(#sunbeam)"/>
  <rect x="0" y="430" width="1200" height="8" fill="#D4BC8A" rx="2"/>
  <rect x="0" y="438" width="1200" height="192" fill="url(#floorGrad)"/>
  <rect x="0" y="455" width="1200" height="1.5" fill="#C8A87A" opacity="0.4"/>
  <rect x="0" y="480" width="1200" height="1.5" fill="#C8A87A" opacity="0.4"/>
  <rect x="0" y="505" width="1200" height="1.5" fill="#C8A87A" opacity="0.4"/>
  <rect x="0" y="530" width="1200" height="1.5" fill="#C8A87A" opacity="0.4"/>
  <rect x="0" y="555" width="1200" height="1.5" fill="#C8A87A" opacity="0.4"/>
  <rect x="0" y="580" width="1200" height="1.5" fill="#C8A87A" opacity="0.4"/>
  <rect x="0" y="605" width="1200" height="1.5" fill="#C8A87A" opacity="0.4"/>
  <rect x="80" y="80" width="220" height="300" fill="#B8D4E8" rx="12"/>
  <rect x="80" y="80" width="220" height="300" fill="url(#windowLight)" rx="12"/>
  <rect x="80" y="80" width="220" height="300" fill="none" stroke="#C9A97A" stroke-width="14" rx="12"/>
  <rect x="185" y="80" width="10" height="300" fill="#C9A97A"/>
  <rect x="80" y="222" width="220" height="10" fill="#C9A97A"/>
  <rect x="66" y="372" width="248" height="18" fill="#C9A97A" rx="4"/>
  <ellipse cx="275" cy="362" rx="18" ry="12" fill="#7BB358"/>
  <ellipse cx="260" cy="350" rx="12" ry="18" fill="#6BA348" transform="rotate(-20,260,350)"/>
  <ellipse cx="290" cy="352" rx="11" ry="16" fill="#7BB358" transform="rotate(15,290,352)"/>
  <rect x="268" y="368" width="14" height="12" fill="#A0724A" rx="3"/>
  <rect x="970" y="90" width="170" height="340" fill="#D4A96A" rx="8"/>
  <rect x="970" y="90" width="170" height="340" fill="none" stroke="#B8873E" stroke-width="4" rx="8"/>
  <rect x="970" y="190" width="170" height="10" fill="#B8873E"/>
  <rect x="970" y="290" width="170" height="10" fill="#B8873E"/>
  <rect x="982" y="105" width="22" height="80" fill="#E87050" rx="2"/>
  <rect x="1006" y="112" width="18" height="73" fill="#5B8ED6" rx="2"/>
  <rect x="1026" y="108" width="24" height="77" fill="#6BBF6A" rx="2"/>
  <rect x="1052" y="115" width="16" height="70" fill="#F0A830" rx="2"/>
  <rect x="1070" y="105" width="20" height="80" fill="#B07ACC" rx="2"/>
  <rect x="1092" y="110" width="18" height="75" fill="#E87050" rx="2"/>
  <rect x="1112" y="108" width="22" height="77" fill="#5B8ED6" rx="2"/>
  <rect x="982" y="205" width="20" height="78" fill="#F0A830" rx="2"/>
  <rect x="1004" y="210" width="24" height="73" fill="#6BBF6A" rx="2"/>
  <rect x="1030" y="207" width="18" height="76" fill="#E87050" rx="2"/>
  <rect x="1050" y="210" width="22" height="73" fill="#B07ACC" rx="2"/>
  <rect x="1074" y="205" width="16" height="78" fill="#5B8ED6" rx="2"/>
  <rect x="1092" y="208" width="26" height="75" fill="#F0A830" rx="2"/>
  <rect x="1120" y="207" width="14" height="76" fill="#6BBF6A" rx="2"/>
  <rect x="990" y="306" width="30" height="28" fill="#F4C85A" rx="6"/>
  <circle cx="1005" cy="304" r="12" fill="#F9D870"/>
  <ellipse cx="600" cy="500" rx="320" ry="100" fill="#B5855A" opacity="0.5"/>
  <ellipse cx="600" cy="498" rx="295" ry="90" fill="#C8936A"/>
  <ellipse cx="600" cy="498" rx="295" ry="90" fill="none" stroke="#A07040" stroke-width="8"/>
  <ellipse cx="600" cy="498" rx="270" ry="78" fill="none" stroke="#E8B07A" stroke-width="4"/>
  <ellipse cx="600" cy="498" rx="200" ry="58" fill="none" stroke="#A07040" stroke-width="2" stroke-dasharray="10,8"/>
  <ellipse cx="430" cy="510" rx="55" ry="14" fill="#A07040" opacity="0.25"/>
  <path d="M410 480 Q415 500 405 515" stroke="#E8B08A" stroke-width="20" stroke-linecap="round" fill="none"/>
  <path d="M450 480 Q455 500 465 515" stroke="#E8B08A" stroke-width="20" stroke-linecap="round" fill="none"/>
  <ellipse cx="404" cy="518" rx="18" ry="10" fill="#E87050" transform="rotate(-10,404,518)"/>
  <ellipse cx="467" cy="518" rx="18" ry="10" fill="#E87050" transform="rotate(10,467,518)"/>
  <rect x="400" y="380" width="70" height="105" fill="#5B8ED6" rx="20"/>
  <path d="M400 410 Q360 430 345 445" stroke="#E8B08A" stroke-width="18" stroke-linecap="round" fill="none"/>
  <circle cx="340" cy="448" r="13" fill="#E8B08A"/>
  <rect x="315" y="435" width="30" height="26" fill="#E87050" rx="6"/>
  <rect x="315" y="435" width="30" height="26" fill="none" stroke="#C85030" stroke-width="2" rx="6"/>
  <path d="M470 415 Q490 440 488 458" stroke="#E8B08A" stroke-width="18" stroke-linecap="round" fill="none"/>
  <circle cx="488" cy="460" r="12" fill="#E8B08A"/>
  <rect x="420" y="370" width="30" height="18" fill="#E8B08A" rx="8"/>
  <circle cx="435" cy="342" r="52" fill="#F0C8A0"/>
  <path d="M385 330 Q390 280 435 272 Q480 280 485 330 Q470 300 435 296 Q400 300 385 330Z" fill="#7A4A20"/>
  <path d="M385 330 Q382 340 386 348" stroke="#7A4A20" stroke-width="8" stroke-linecap="round" fill="none"/>
  <ellipse cx="420" cy="348" rx="6" ry="7" fill="#5A3010" opacity="0.8"/>
  <ellipse cx="450" cy="348" rx="6" ry="7" fill="#5A3010" opacity="0.8"/>
  <path d="M420 368 Q435 380 450 368" stroke="#C87060" stroke-width="3.5" fill="none" stroke-linecap="round"/>
  <ellipse cx="410" cy="362" rx="10" ry="6" fill="#F0A090" opacity="0.4"/>
  <ellipse cx="460" cy="362" rx="10" ry="6" fill="#F0A090" opacity="0.4"/>
  <ellipse cx="770" cy="510" rx="50" ry="13" fill="#A07040" opacity="0.25"/>
  <path d="M745 475 Q730 495 720 510" stroke="#F0D0B0" stroke-width="20" stroke-linecap="round" fill="none"/>
  <path d="M795 475 Q810 495 820 510" stroke="#F0D0B0" stroke-width="20" stroke-linecap="round" fill="none"/>
  <ellipse cx="718" cy="513" rx="17" ry="9" fill="#6BBF6A" transform="rotate(-10,718,513)"/>
  <ellipse cx="822" cy="513" rx="17" ry="9" fill="#6BBF6A" transform="rotate(10,822,513)"/>
  <rect x="742" y="386" width="66" height="98" fill="#F0A830" rx="20"/>
  <path d="M742 412 Q710 432 695 445" stroke="#F0D0B0" stroke-width="17" stroke-linecap="round" fill="none"/>
  <circle cx="692" cy="447" r="12" fill="#F0D0B0"/>
  <path d="M808 412 Q830 435 832 455" stroke="#F0D0B0" stroke-width="17" stroke-linecap="round" fill="none"/>
  <circle cx="832" cy="458" r="12" fill="#F0D0B0"/>
  <rect x="760" y="376" width="30" height="18" fill="#F0D0B0" rx="8"/>
  <circle cx="775" cy="348" r="48" fill="#F8D8B0"/>
  <path d="M730 335 Q734 284 775 278 Q816 284 820 335 Q808 300 775 296 Q742 300 730 335Z" fill="#3A2010"/>
  <circle cx="730" cy="310" r="12" fill="#3A2010"/>
  <circle cx="820" cy="310" r="12" fill="#3A2010"/>
  <circle cx="730" cy="310" r="6" fill="#E87050"/>
  <circle cx="820" cy="310" r="6" fill="#E87050"/>
  <ellipse cx="762" cy="350" rx="6" ry="7" fill="#3A2010" opacity="0.8"/>
  <ellipse cx="788" cy="350" rx="6" ry="7" fill="#3A2010" opacity="0.8"/>
  <path d="M760 370 Q775 383 790 370" stroke="#C87060" stroke-width="3.5" fill="none" stroke-linecap="round"/>
  <ellipse cx="750" cy="364" rx="9" ry="6" fill="#F0A090" opacity="0.45"/>
  <ellipse cx="800" cy="364" rx="9" ry="6" fill="#F0A090" opacity="0.45"/>
  <polygon points="600,445 608,462 626,462 612,472 618,490 600,480 582,490 588,472 574,462 592,462" fill="#F4C85A"/>
  <rect x="555" y="478" width="44" height="24" fill="#5B8ED6" rx="6"/>
  <rect x="563" y="470" width="28" height="18" fill="#7AAAE8" rx="5"/>
  <circle cx="563" cy="505" r="8" fill="#333"/>
  <circle cx="563" cy="505" r="4" fill="#888"/>
  <circle cx="591" cy="505" r="8" fill="#333"/>
  <circle cx="591" cy="505" r="4" fill="#888"/>
  <circle cx="640" cy="488" r="16" fill="#6BBF6A"/>
  <circle cx="640" cy="488" r="9" fill="#5A9E5A"/>
  <rect x="618" y="468" width="22" height="22" fill="#E87898" rx="4"/>
  <circle cx="573" cy="460" r="12" fill="#F08030"/>
  <circle cx="568" cy="455" r="4" fill="#FFB060" opacity="0.6"/>
  <rect x="100" y="445" width="180" height="120" fill="#FFF8E0" opacity="0.12" rx="4"/>
</svg>
