<svg width="100%" viewBox="0 0 680 480" role="img" xmlns="http://www.w3.org/2000/svg">
<title>Toddler travel essentials neatly packed</title>
<desc>An organized flat-lay of toddler travel essentials including a soft bag, snack containers, a comfort toy, wipes, and a small health kit arranged in an elegant grid layout</desc>
<style>
  .bg { fill: #F5F0EB; }
  .bag { fill: #D4C5B0; stroke: #B8A898; stroke-width: 1; }
  .bag-accent { fill: #C2AE96; }
  .bag-zip { fill: none; stroke: #9C8B7A; stroke-width: 1.5; stroke-dasharray: 4 2; }
  .snack-box { fill: #E8D5C0; stroke: #C8B09A; stroke-width: 0.8; }
  .snack-lid { fill: #D4BC9E; }
  .toy { fill: #F0C8A0; stroke: #D4A87A; stroke-width: 0.8; }
  .wipes { fill: #C8D8D0; stroke: #A8BEB6; stroke-width: 0.8; }
  .wipes-lid { fill: #B4CCC4; }
  .health-kit { fill: #E0D0E8; stroke: #C0B0D0; stroke-width: 0.8; }
  .health-cross { fill: #C8A8D8; }
  .water { fill: #C0D8E8; stroke: #A0C0D4; stroke-width: 0.8; }
  .water-cap { fill: #A0C4D8; }
  .snack-bag { fill: #F0DCC0; stroke: #D8C098; stroke-width: 0.8; }
  .clothes-roll { fill: #D8CCC0; stroke: #C0B0A0; stroke-width: 0.8; }
  .shadow { fill: rgba(0,0,0,0.06); }
</style>
<rect width="680" height="480" class="bg" rx="0"/>
<rect x="36" y="36" width="608" height="408" rx="16" fill="#EDE8E2"/>
<rect x="120" y="72" width="220" height="290" rx="12" class="shadow" transform="translate(3,4)"/>
<rect x="120" y="72" width="220" height="290" rx="12" class="bag"/>
<rect x="120" y="72" width="220" height="38" rx="12" class="bag-accent"/>
<rect x="120" y="96" width="220" height="14" class="bag-accent"/>
<path d="M155 72 Q230 52 265 72" class="bag-zip"/>
<ellipse cx="230" cy="72" rx="6" ry="5" fill="#A89880"/>
<rect x="148" y="130" width="164" height="4" rx="2" fill="#C2AE96" opacity="0.6"/>
<rect x="148" y="148" width="164" height="4" rx="2" fill="#C2AE96" opacity="0.4"/>
<rect x="148" y="166" width="120" height="4" rx="2" fill="#C2AE96" opacity="0.3"/>
<rect x="148" y="200" width="164" height="90" rx="8" fill="#CBB89A" opacity="0.35"/>
<rect x="164" y="216" width="132" height="58" rx="6" fill="#B8A48A" opacity="0.3"/>
<circle cx="230" cy="312" r="18" fill="#B8A488" opacity="0.5"/>
<circle cx="230" cy="312" r="10" fill="#A89478" opacity="0.6"/>
<rect x="366" y="72" width="168" height="100" rx="10" class="shadow" transform="translate(3,4)"/>
<rect x="366" y="72" width="168" height="100" rx="10" class="snack-box"/>
<rect x="366" y="72" width="168" height="22" rx="10" class="snack-lid"/>
<rect x="366" y="84" width="168" height="10" class="snack-lid"/>
<circle cx="410" cy="120" r="14" fill="#E8C898" opacity="0.8"/>
<circle cx="450" cy="115" r="10" fill="#F0D4A0" opacity="0.7"/>
<circle cx="480" cy="122" r="12" fill="#E4C490" opacity="0.7"/>
<circle cx="432" cy="138" r="8" fill="#D8B87C" opacity="0.6"/>
<rect x="366" y="192" width="78" height="78" rx="8" class="shadow" transform="translate(3,4)"/>
<rect x="366" y="192" width="78" height="78" rx="8" class="wipes"/>
<rect x="366" y="192" width="78" height="20" rx="8" class="wipes-lid"/>
<rect x="366" y="202" width="78" height="10" class="wipes-lid"/>
<rect x="380" y="226" width="50" height="3" rx="1.5" fill="#98B8B0" opacity="0.6"/>
<rect x="380" y="234" width="50" height="3" rx="1.5" fill="#98B8B0" opacity="0.5"/>
<rect x="380" y="242" width="36" height="3" rx="1.5" fill="#98B8B0" opacity="0.4"/>
<path d="M400 212 Q405 216 400 220 Q395 216 400 212 Z" fill="#88A8A0" opacity="0.6"/>
<rect x="456" y="192" width="78" height="78" rx="8" class="shadow" transform="translate(3,4)"/>
<rect x="456" y="192" width="78" height="78" rx="8" class="health-kit"/>
<rect x="489" y="214" width="12" height="34" rx="3" class="health-cross"/>
<rect x="473" y="230" width="44" height="12" rx="3" class="health-cross"/>
<rect x="366" y="290" width="168" height="72" rx="8" class="shadow" transform="translate(3,4)"/>
<rect x="366" y="290" width="168" height="72" rx="8" class="water"/>
<rect x="366" y="290" width="168" height="18" rx="8" class="water-cap"/>
<rect x="366" y="298" width="168" height="10" class="water-cap"/>
<ellipse cx="450" cy="340" rx="44" ry="8" fill="#90C0D4" opacity="0.2"/>
<rect x="390" y="320" width="120" height="3" rx="1.5" fill="#90C0D4" opacity="0.3"/>
<rect x="400" y="330" width="100" height="3" rx="1.5" fill="#90C0D4" opacity="0.25"/>
<rect x="120" y="382" width="100" height="56" rx="8" class="shadow" transform="translate(3,4)"/>
<rect x="120" y="382" width="100" height="56" rx="8" class="snack-bag"/>
<path d="M148 382 Q170 370 192 382" fill="none" stroke="#C8A87A" stroke-width="1.2"/>
<rect x="134" y="404" width="72" height="3" rx="1.5" fill="#C8A87A" opacity="0.5"/>
<rect x="140" y="412" width="60" height="3" rx="1.5" fill="#C8A87A" opacity="0.4"/>
<circle cx="170" cy="396" r="6" fill="#D4B488" opacity="0.6"/>
<rect x="236" y="382" width="100" height="56" rx="8" class="shadow" transform="translate(3,4)"/>
<rect x="236" y="382" width="100" height="56" rx="8" class="clothes-roll"/>
<ellipse cx="286" cy="382" rx="50" ry="12" fill="#C8BCA8" opacity="0.6"/>
<ellipse cx="286" cy="438" rx="50" ry="10" fill="#C0B4A0" opacity="0.4"/>
<rect x="242" y="382" width="8" height="56" rx="0" fill="#C0B09A" opacity="0.25"/>
<rect x="258" y="382" width="6" height="56" rx="0" fill="#C0B09A" opacity="0.15"/>
<rect x="320" y="382" width="8" height="56" rx="0" fill="#C0B09A" opacity="0.2"/>
<rect x="366" y="382" width="78" height="56" rx="8" class="shadow" transform="translate(3,4)"/>
<rect x="366" y="382" width="78" height="56" rx="8" class="toy"/>
<circle cx="395" cy="410" r="16" fill="#E8C090" opacity="0.5"/>
<circle cx="415" cy="406" r="10" fill="#F0CC9A" opacity="0.6"/>
<path d="M384 420 Q405 428 426 420" fill="none" stroke="#D4A870" stroke-width="1.5" stroke-linecap="round"/>
<rect x="456" y="382" width="78" height="56" rx="8" class="shadow" transform="translate(3,4)"/>
<rect x="456" y="382" width="78" height="56" rx="8" fill="#D0DCCC" stroke="#B4C8B0" stroke-width="0.8"/>
<circle cx="495" cy="404" r="8" fill="#B8CEB4" opacity="0.6"/>
<circle cx="495" cy="404" r="4" fill="#A4BEA0" opacity="0.7"/>
<path d="M482 418 L508 418" stroke="#A4BEA0" stroke-width="1.5" stroke-linecap="round"/>
<path d="M486 424 L504 424" stroke="#A4BEA0" stroke-width="1" stroke-linecap="round" opacity="0.6"/>
</svg>
