<svg width="100%" viewBox="0 0 680 420" role="img" xmlns="http://www.w3.org/2000/svg">
<title>Working parent and child sharing a quiet evening moment at home</title>
<desc>A warm, intimate interior scene: a parent and child sit close together on a sofa in soft lamplight, conveying presence, calm, and emotional safety.</desc>
<defs>
  <radialGradient id="glow" cx="62%" cy="18%" r="38%">
    <stop offset="0%" stop-color="#FFF1D0" stop-opacity="0.9"/>
    <stop offset="100%" stop-color="#F5E6C8" stop-opacity="0"/>
  </radialGradient>
  <radialGradient id="floorGlow" cx="50%" cy="100%" r="55%">
    <stop offset="0%" stop-color="#E8C98A" stop-opacity="0.25"/>
    <stop offset="100%" stop-color="#C4924A" stop-opacity="0"/>
  </radialGradient>
  <clipPath id="wallClip">
    <rect x="0" y="0" width="680" height="420"/>
  </clipPath>
</defs>
<rect x="0" y="0" width="680" height="420" fill="#2C1F12"/>
<rect x="0" y="0" width="680" height="420" fill="url(#glow)"/>
<rect x="0" y="310" width="680" height="110" fill="#1A1008" rx="0"/>
<rect x="0" y="310" width="680" height="110" fill="url(#floorGlow)"/>
<line x1="0" y1="310" x2="680" y2="310" stroke="#3A2510" stroke-width="1.5"/>
<rect x="460" y="40" width="140" height="180" fill="#0D1520" rx="3"/>
<rect x="455" y="35" width="150" height="190" fill="none" stroke="#4A3018" stroke-width="8" rx="4"/>
<line x1="535" y1="35" x2="535" y2="225" stroke="#3A2510" stroke-width="4"/>
<line x1="455" y1="130" x2="605" y2="130" stroke="#3A2510" stroke-width="4"/>
<circle cx="485" cy="70" r="1.2" fill="#C8D8F0" opacity="0.7"/>
<circle cx="520" cy="55" r="0.9" fill="#C8D8F0" opacity="0.5"/>
<circle cx="560" cy="80" r="1.1" fill="#C8D8F0" opacity="0.6"/>
<circle cx="575" cy="60" r="0.8" fill="#C8D8F0" opacity="0.4"/>
<circle cx="498" cy="100" r="0.7" fill="#C8D8F0" opacity="0.5"/>
<circle cx="548" cy="90" r="1" fill="#C8D8F0" opacity="0.6"/>
<circle cx="582" cy="105" r="0.8" fill="#C8D8F0" opacity="0.4"/>
<circle cx="565" cy="165" r="14" fill="#E8EEF8" opacity="0.85"/>
<circle cx="571" cy="162" r="11" fill="#0D1520"/>
<rect x="600" y="245" width="36" height="8" fill="#5C3D1E" rx="2"/>
<rect x="612" y="215" width="12" height="30" fill="#6B4726"/>
<path d="M600 215 L624 215 L630 175 L594 175 Z" fill="#E8A84A" opacity="0.9"/>
<path d="M600 215 L624 215 L630 175 L594 175 Z" fill="#FFF0C0" opacity="0.3"/>
<ellipse cx="612" cy="200" rx="90" ry="65" fill="#FFD070" opacity="0.13"/>
<ellipse cx="612" cy="210" rx="55" ry="40" fill="#FFD070" opacity="0.1"/>
<rect x="80" y="255" width="500" height="70" fill="#6B4C32" rx="6"/>
<rect x="90" y="240" width="195" height="55" fill="#7A5840" rx="5"/>
<rect x="295" y="240" width="195" height="55" fill="#7A5840" rx="5"/>
<rect x="80" y="200" width="500" height="50" fill="#5D3E27" rx="6"/>
<rect x="60" y="205" width="38" height="120" fill="#5D3E27" rx="5"/>
<rect x="562" y="205" width="38" height="120" fill="#5D3E27" rx="5"/>
<rect x="90" y="242" width="195" height="6" fill="#9A7355" rx="3" opacity="0.5"/>
<rect x="295" y="242" width="195" height="6" fill="#9A7355" rx="3" opacity="0.5"/>
<path d="M130 250 Q200 245 270 252 Q310 258 340 252 Q370 245 400 255 L400 295 Q370 288 340 295 Q310 302 270 297 Q200 290 130 295 Z" fill="#B56B3A" opacity="0.55"/>
<path d="M150 260 Q220 255 290 262" fill="none" stroke="#CF8050" stroke-width="1" opacity="0.4"/>
<path d="M150 272 Q220 267 300 274" fill="none" stroke="#CF8050" stroke-width="1" opacity="0.4"/>
<rect x="50" y="290" width="28" height="20" fill="#3D2510" rx="2"/>
<rect x="55" y="278" width="18" height="14" fill="#8B5E3C" rx="2"/>
<path d="M73 283 Q79 283 79 289 Q79 293 73 293" fill="none" stroke="#7A5030" stroke-width="2"/>
<path d="M60 276 Q62 270 60 264" fill="none" stroke="#C8A080" stroke-width="1.2" opacity="0.5"/>
<path d="M65 275 Q67 269 65 263" fill="none" stroke="#C8A080" stroke-width="1.2" opacity="0.45"/>
<path d="M70 276 Q72 270 70 264" fill="none" stroke="#C8A080" stroke-width="1.2" opacity="0.4"/>
<ellipse cx="290" cy="245" rx="38" ry="45" fill="#3B2211"/>
<ellipse cx="275" cy="280" rx="22" ry="16" fill="#2E1A0D"/>
<ellipse cx="305" cy="282" rx="22" ry="14" fill="#2E1A0D"/>
<path d="M258 235 Q290 222 322 235 L328 265 Q290 270 252 265 Z" fill="#7B3F22"/>
<rect x="284" y="198" width="14" height="22" fill="#C4876A" rx="4"/>
<ellipse cx="291" cy="188" rx="26" ry="28" fill="#C4876A"/>
<path d="M265 178 Q268 155 291 152 Q314 155 317 178 Q310 165 291 162 Q272 165 265 178 Z" fill="#2C1A0A"/>
<ellipse cx="265" cy="190" rx="6" ry="8" fill="#B87A5E"/>
<ellipse cx="283" cy="186" rx="4" ry="4.5" fill="#1A0E06" opacity="0.7"/>
<ellipse cx="299" cy="186" rx="4" ry="4.5" fill="#1A0E06" opacity="0.7"/>
<path d="M282 197 Q291 203 300 197" fill="none" stroke="#A06848" stroke-width="1.5" stroke-linecap="round"/>
<path d="M320 235 Q355 225 370 240 Q365 255 340 258" fill="#7B3F22" stroke="#6A3318" stroke-width="1"/>
<ellipse cx="368" cy="278" rx="18" ry="13" fill="#2E1A0D"/>
<ellipse cx="390" cy="280" rx="18" ry="12" fill="#2E1A0D"/>
<path d="M345 242 Q370 230 400 240 L405 268 Q370 274 340 268 Z" fill="#C4714A"/>
<rect x="367" y="208" width="11" height="18" fill="#D9A080" rx="3"/>
<ellipse cx="372" cy="198" rx="21" ry="23" fill="#D9A080"/>
<path d="M351 190 Q353 172 372 169 Q391 172 393 190 Q386 178 372 175 Q358 178 351 190 Z" fill="#1E1008"/>
<ellipse cx="351" cy="199" rx="5" ry="7" fill="#C88E6A"/>
<ellipse cx="364" cy="196" rx="3.5" ry="3.8" fill="#1A0E06" opacity="0.75"/>
<ellipse cx="380" cy="196" rx="3.5" ry="3.8" fill="#1A0E06" opacity="0.75"/>
<path d="M364 206 Q372 212 380 206" fill="none" stroke="#B07050" stroke-width="1.4" stroke-linecap="round"/>
<ellipse cx="340" cy="240" rx="180" ry="100" fill="#FFD898" opacity="0.07"/>
<ellipse cx="340" cy="330" rx="210" ry="22" fill="#6B3E1A" opacity="0.5"/>
<ellipse cx="340" cy="330" rx="180" ry="16" fill="#7A4820" opacity="0.3"/>
<path d="M200 325 Q340 318 480 325" fill="none" stroke="#9A6030" stroke-width="1" opacity="0.4"/>
<rect x="0" y="340" width="680" height="80" fill="#1A0E06" opacity="0.4"/>
<rect x="0" y="0" width="80" height="420" fill="#2C1F12" opacity="0.5"/>
<rect x="600" y="0" width="80" height="420" fill="#2C1F12" opacity="0.3"/>
<rect x="0" y="0" width="680" height="50" fill="#1A1008" opacity="0.4"/>
</svg>
